<svg width="20" height="20" viewBox="0 0 20 20" fill="none" xmlns="http://www.w3.org/2000/svg"><g class="svg-fill" clip-path="url(#clip0)" fill="#4ED401"><path d="M20 18h-2v-2c.567-.557.971-1.434 1-2.228a4.027 4.027 0 00-1.029-2.75L18 7c-.732 0-1.502-.463-2.02-.98-.517-.518-1.006-1.22-1.006-1.951H5c0 .732-.463 1.433-.98 1.95C3.502 6.538 2.732 7 2 7v6.182c.732 0 1.502.29 2.02.808.517.517.98 1.219.98 1.95h8.01L13.002 18H0V2h20v16zm-4.5-1c-.526 0-1.5-.295-1.5-.295V20l1.5-.5 1.522.5v-3.295S16.5 17 15.5 17z"/><circle cx="15.5" cy="13.5" r="2.5"/><path d="M6 12h6v1H6zm0-3h8v1H6zm0-3h8v1H6z"/></g><defs><clipPath id="clip0"><path d="M0 0h20v20H0V0z" fill="#fff"/></clipPath></defs></svg>