<svg width="20" height="20" fill="none" xmlns="http://www.w3.org/2000/svg"><g clip-path="url(#clip0)" fill="#4ED401"><path d="M20 2v17.999H0c0-6-.033-12 .001-17.999h3v1.5C3 4.128 3.753 5 4.5 5h2C7.38 4.924 8 4.252 8 3.5V2h4v1.5c0 .458.5 1.5 1.5 1.5h2c.546 0 1.5-.5 1.5-1.501V2h3zm-2 16l-.029-11.573H2.001V18h16z"/><path fill-rule="evenodd" clip-rule="evenodd" d="M6.857.714A.715.715 0 006.143 0H4.57a.715.715 0 00-.714.714v2.143c0 .394.321.714.714.714h1.572c.393 0 .714-.32.714-.714V.714zm9.143 0A.716.716 0 0015.286 0h-1.572A.716.716 0 0013 .714v2.143c0 .395.321.714.714.714h1.572A.715.715 0 0016 2.857V.714z"/></g><defs><clipPath id="clip0"><path d="M0 0h20v20H0V0z" fill="#fff"/></clipPath></defs></svg>