<svg width="20" height="20" fill="none" xmlns="http://www.w3.org/2000/svg"><path class="svg-fill" d="M3.612 4.639C5.384 2.88 7.513 2 10 2s4.61.88 6.365 2.639C18.121 6.398 19 8.519 19 11c0 2.482-.878 4.602-2.635 6.362C14.61 19.12 12.487 20 10 20s-4.608-.88-6.366-2.638C1.878 15.603 1 13.482 1 11c0-2.481.872-4.602 2.612-6.361zm1.445 11.309C6.425 17.33 8.073 18.022 10 18.022c1.927 0 3.576-.684 4.943-2.05 1.368-1.367 2.052-3.024 2.052-4.972 0-1.916-.684-3.565-2.052-4.948C13.576 4.67 11.927 3.98 10 3.98c-1.927 0-3.575.691-4.943 2.073C3.69 7.434 3.006 9.084 3.006 11c0 1.915.683 3.566 2.051 4.948z" fill="#4ED401"/><path class="svg-fill" d="M20 3.902l-1.308 1.553-4.58-3.856L15.419.047 20 3.902zM5.841 1.552L1.308 5.455 0 3.902 4.532 0l1.31 1.552zM11 6v5l4 2.5-1.262 1.5-4.72-2.868V6H11z" fill="#4ED401"/></svg>