<svg width="20" height="20" fill="none" xmlns="http://www.w3.org/2000/svg"><g clip-path="url(#clip0)"><path fill-rule="evenodd" clip-rule="evenodd" d="M7.085 5.699C12.761.023 20 0 20 0s-.023 7.24-5.698 12.915a6.333 6.333 0 01-.84.705c.073 1 .033 2.528-.752 3.312-1.84 1.84-4.895 2.468-4.895 2.468l.599-4.034-1.382.008-2.405-2.406.007-1.382-4.035.598S1.227 9.13 3.067 7.29c.784-.785 2.314-.825 3.314-.751.208-.295.442-.577.704-.84zm4.948.149c-.08.2-.118.415-.114.63a1.594 1.594 0 001.604 1.562 1.63 1.63 0 001.513-2.21 1.588 1.588 0 00-1.496-1.015 1.622 1.622 0 00-1.157.494c-.151.155-.27.338-.35.539zM6.608 16.109a1.05 1.05 0 00-.065.107c-.036.062-.071.125-.124.177-1.423 1.423-3.542.728-3.542.728s-.697-2.119.727-3.542a.772.772 0 01.173-.121c.038-.022.075-.043.111-.07l-.66-.66a3.343 3.343 0 00-1.51.86C-.277 15.58.014 19.982.014 19.982s4.375.317 6.394-1.702c.434-.433.713-.96.861-1.511l-.662-.66z" fill="#4ED401"/></g><defs><clipPath id="clip0"><path d="M0 0h20v20H0V0z" fill="#fff"/></clipPath></defs></svg>