<svg width="18" height="32" fill="none" xmlns="http://www.w3.org/2000/svg"><path d="M7.4 26.126c1.092-.683 2.12-1.19 2.948-1.593 1.326-.65 2.464-1.212 3.312-2.129 4.16-4.496 3.102-11.403 3.056-11.695l-.117-.713-.336.64c-.018.034-1.894 3.564-5.181 6.014-.373.275-.831.584-1.372.947-.99.666-2.224 1.493-3.711 2.656-4.888 3.828-4.944 10.162-4.944 10.43v.681l.431-.53c.005-.01 1.682-2.054 5.914-4.708zM6.364 13.315c2.242-1.403 3.832-2.496 4.866-3.608 3.24-3.504 2.375-8.133 2.334-8.328l-.132-.676-.319.608c-.01.022-1.433 2.72-3.976 4.613a25.48 25.48 0 01-.992.688c-.785.528-1.774 1.193-2.922 2.09-3.784 2.961-3.83 7.868-3.83 8.075v.684l.431-.533c.007-.01 1.255-1.552 4.54-3.613z" fill="#54D226"/></svg>