<svg width="134" height="26" viewBox="0 0 207 40" fill="none"
     xmlns="http://www.w3.org/2000/svg">
    <path class="svg-fill"
          d="M12.5205 22.788C14.1453 23.6586 15 24.6219 15 27.9992V38.9998H20V26.5182C20 21.0454 16.546 17.4776 11.4178 16.9762C9.67044 16.8187 8.2063 16.9616 6.66895 17.4463C6.12973 17.6143 5.72144 17.8347 5.28011 18.0998L4.98352 18.2769L5 4.88867L4.80757 4.98703C4.41225 5.19457 3.58003 5.57923 2.44302 6.2027C0.616613 7.22916 0 8.46567 0 11.1029V38.9998H5V23.4998L5.08827 23.4419C7.37693 21.9507 10.4397 21.6761 12.5205 22.788Z"
          fill="white"/>
    <path class="svg-fill"
          d="M59.2731 26.7968L59.289 26.5868C59.5655 23.0544 62.774 21.4448 65.6387 21.4448C68.5126 21.4448 71.7488 23.0527 72.0638 26.5843L72.0822 26.7968H59.2731ZM73.9835 20.7647C71.986 18.3834 69.0765 17.0723 65.7943 17.0723H65.7232C58.3561 17.1152 54.5004 22.8597 54.5004 28.5097C54.4753 31.6945 55.6533 34.7164 57.7315 36.8022C59.7554 38.8343 62.5356 39.9083 65.768 39.9083C69.6049 39.9083 72.9138 38.2017 75.333 34.9735L75.4171 34.8622L71.8818 32.6214L71.812 32.7197C70.024 35.1786 67.6442 35.4936 65.768 35.4936C62.1771 35.4936 59.8872 33.0898 59.2768 30.8602L59.2099 30.613H76.3253L76.3462 30.5063C77.0197 26.9068 76.158 23.3561 73.9835 20.7647Z"
          fill="white"/>
    <path class="svg-fill"
          d="M29.8088 15.3988C29.4123 15.606 28.7584 15.9894 27.6214 16.6141C25.795 17.641 25 18.8775 25 21.5135V38.9996H30V15.2988L29.8088 15.3988Z"
          fill="white"/>
    <path class="svg-fill"
          d="M45 39L45 11.1925C45 8.55657 45.6179 7.32006 47.4468 6.29068C48.5813 5.66847 49.4123 5.28505 49.8076 5.07918L50 5V39H45Z"
          fill="white"/>
    <path class="svg-fill"
          d="M35 39.0009V10.9009C35 8.26492 35.6166 7.02841 37.4468 5.99902C38.58 5.37681 39.411 4.9934 39.8076 4.78752L40 4.6875V39.0009L35 39.0009Z"
          fill="white"/>
    <path class="svg-fill"
          d="M81 38.9994V11.1919C81 8.55593 81.6179 7.31942 83.448 6.29004C84.5813 5.66783 85.4123 5.28441 85.8088 5.07854L86 4.97852V38.9994H81Z"
          fill="white"/>
    <path class="svg-fill"
          d="M27.0249 13.7168C27.6139 13.3479 28.1715 13.075 28.6195 12.857C29.3349 12.5065 29.9515 12.2031 30.41 11.7084C32.6593 9.28249 32.0874 5.55545 32.0611 5.39792L31.9979 5.01367L31.8172 5.35874C31.8067 5.37708 30.7923 7.28207 29.0144 8.60359C28.8132 8.75196 28.5651 8.91866 28.274 9.11454C27.7389 9.47419 27.0709 9.92054 26.2673 10.5478C23.6226 12.6128 23.5938 16.031 23.5938 16.1756V16.5432L23.8255 16.2569C23.8284 16.2519 24.7349 15.1491 27.0249 13.7168Z"
          fill="white"/>
    <path class="svg-fill"
          d="M26.4631 6.80518C27.6742 6.04794 28.5359 5.45823 29.0932 4.85852C30.8459 2.96812 30.3782 0.470099 30.3557 0.365077L30.2845 0L30.113 0.328402C30.108 0.340071 29.3383 1.79579 27.9628 2.81726C27.8152 2.92728 27.6361 3.04814 27.4253 3.18859C27.0007 3.47365 26.4673 3.83205 25.8453 4.31632C23.7988 5.91374 23.7754 8.5618 23.7754 8.67307V9.04232L24.0084 8.75476C24.0126 8.74934 24.6869 7.91708 26.4631 6.80518Z"
          fill="white"/>
    <path d="M200.28 27.5423L186.381 27.5448C186.717 23.2538 189.886 21.3366 193.296 21.3366C196.706 21.3366 199.887 23.1417 200.28 27.5423ZM201.443 21.3821C199.424 18.9753 195.961 17.8164 193.381 17.8164C186.409 17.8164 182.5 23.4155 182.5 28.9241C182.475 32.1435 183.571 34.9213 185.65 37.0091C187.593 38.9592 190.159 39.9998 193.427 39.9998C196.427 39.9998 200.024 38.7865 202.421 35.5878L199.642 33.7873C198.038 35.9935 195.026 36.4442 193.427 36.4442C189.438 36.4442 187.068 33.6074 186.269 30.6901H203.741C204.343 27.4724 203.311 23.6081 201.443 21.3821Z"
          fill="#4ED401"/>
    <path fill-rule="evenodd" clip-rule="evenodd"
          d="M106.566 17.8516C112.673 17.8516 117.631 22.7916 117.631 28.8763C117.631 34.9604 112.673 39.9004 106.566 39.9004C100.459 39.9004 95.5 34.9604 95.5 28.8763C95.5 22.7916 100.459 17.8516 106.566 17.8516ZM106.566 21.5058C110.672 21.5058 114.006 24.827 114.006 28.9183C114.006 33.0091 110.672 36.3303 106.566 36.3303C102.46 36.3303 99.1258 33.0091 99.1258 28.9183C99.1258 24.827 102.46 21.5058 106.566 21.5058Z"
          fill="#4ED401"/>
    <path d="M144 39.0002V15.4395C144 12.9633 144.715 11.7538 146.013 11.0238C147.152 10.3834 147.406 10.233 147.807 10.0249L148 9.92383V39.0002H144Z"
          fill="#4ED401"/>
    <path d="M124.36 18.0009L125.383 19.558C125.383 19.558 126.096 18.8995 127.086 18.5086C128.577 17.9221 129.925 17.8347 131.664 17.989C136.766 18.488 140 21.8214 140 27.2638V39.0009H136V28.2747C136 24.9156 135.156 23.7324 133.567 22.8579C131.322 21.6233 127.521 21.8754 125 23.5009V39.0009H121V18.0009H124.36Z"
          fill="#4ED401"/>
    <path d="M163.36 18.079L164.383 19.6361C164.383 19.6361 165.096 18.9776 166.086 18.5867C167.577 18.0003 168.925 17.9128 170.664 18.0671C175.766 18.5661 179 21.8995 179 27.342V39.079H175V28.3528C175 24.9937 174.156 23.8105 172.567 22.936C170.322 21.7014 166.521 21.9535 164 23.579V39.079H160V18.079H163.36Z"
          fill="#4ED401"/>
    <path d="M155.811 18.0608C155.412 18.2688 155.36 18.3031 154.218 18.9303C152.384 19.9614 152 21.1059 152 23.4458V39.0004H156V17.9629L155.811 18.0608Z"
          fill="#4ED401"/>
    <path d="M156.002 13.7501L155.836 13.8375C155.418 14.0433 154.804 14.2748 154.05 14.676C153.193 15.139 152.816 15.3602 152 16.0752V14.9178C152 13.5443 152.289 12.0423 153.988 11.0855C155.124 10.4424 155.408 10.3086 155.805 10.0977L156.002 10V13.7501Z"
          fill="#4ED401"/>
</svg>