<svg width="207" height="40" fill="none" xmlns="http://www.w3.org/2000/svg"><path d="M12.52 22.788c1.625.87 2.48 1.834 2.48 5.211v11h5V26.52c0-5.474-3.454-9.041-8.582-9.543-1.748-.157-3.212-.014-4.749.47-.54.168-.948.389-1.389.654l-.296.177L5 4.889l-.192.098c-.396.208-1.228.592-2.365 1.216C.617 7.229 0 8.466 0 11.103V39h5V23.5l.088-.058c2.289-1.491 5.352-1.766 7.433-.654zm46.753 4.009l.016-.21c.276-3.533 3.485-5.142 6.35-5.142 2.874 0 6.11 1.608 6.425 5.14l.018.212H59.273zm14.71-6.032c-1.997-2.382-4.907-3.693-8.189-3.693h-.07C58.355 17.115 54.5 22.86 54.5 28.51c-.025 3.184 1.153 6.206 3.231 8.292 2.024 2.032 4.805 3.106 8.037 3.106 3.837 0 7.146-1.706 9.565-4.934l.084-.112-3.535-2.24-.07.098c-1.788 2.459-4.168 2.774-6.044 2.774-3.59 0-5.88-2.404-6.491-4.634l-.067-.247h17.115l.021-.107c.674-3.6-.188-7.15-2.362-9.741zm-44.174-5.366c-.397.207-1.05.59-2.188 1.215-1.826 1.027-2.621 2.264-2.621 4.9V39h5V15.299l-.191.1zM45 39V11.193c0-2.636.618-3.873 2.447-4.902 1.134-.623 1.965-1.006 2.36-1.212L50 5v34h-5zm-10 0V10.9c0-2.635.617-3.872 2.447-4.901 1.133-.622 1.964-1.006 2.36-1.211l.193-.1V39h-5zm46 0V11.191c0-2.636.618-3.873 2.448-4.902 1.133-.622 1.964-1.006 2.36-1.211l.192-.1v34.02h-5zM27.025 13.717a16.504 16.504 0 011.595-.86c.715-.35 1.331-.654 1.79-1.149 2.25-2.426 1.677-6.153 1.651-6.31l-.063-.384-.18.345c-.011.018-1.026 1.923-2.804 3.245-.2.148-.449.315-.74.51-.535.36-1.203.807-2.007 1.434-2.644 2.065-2.673 5.483-2.673 5.628v.367l.232-.286c.002-.005.909-1.108 3.199-2.54zm-.562-6.912c1.211-.757 2.073-1.347 2.63-1.946C30.846 2.969 30.378.47 30.356.365L30.284 0l-.171.328c-.005.012-.775 1.468-2.15 2.49-.148.11-.327.23-.538.37a26.17 26.17 0 00-1.58 1.128c-2.046 1.598-2.07 4.246-2.07 4.357v.37l.233-.288c.005-.006.679-.838 2.455-1.95z" fill="#fff"/><path d="M200.28 27.542l-13.899.003c.336-4.291 3.505-6.208 6.915-6.208s6.591 1.805 6.984 6.205zm1.163-6.16c-2.019-2.407-5.482-3.566-8.062-3.566-6.972 0-10.881 5.6-10.881 11.108-.025 3.22 1.071 5.997 3.15 8.085 1.943 1.95 4.509 2.99 7.777 2.99 3 0 6.597-1.213 8.994-4.411l-2.779-1.8c-1.604 2.206-4.616 2.656-6.215 2.656-3.989 0-6.359-2.837-7.158-5.754h17.472c.602-3.218-.43-7.082-2.298-9.308z" fill="#4ED401"/><path fill-rule="evenodd" clip-rule="evenodd" d="M106.566 17.852c6.107 0 11.065 4.94 11.065 11.024 0 6.084-4.958 11.024-11.065 11.024-6.107 0-11.066-4.94-11.066-11.024 0-6.084 4.959-11.024 11.066-11.024zm0 3.654c4.106 0 7.44 3.321 7.44 7.412 0 4.091-3.334 7.412-7.44 7.412s-7.44-3.32-7.44-7.412c0-4.091 3.334-7.412 7.44-7.412z" fill="#4ED401"/><path d="M144 39V15.44c0-2.477.715-3.686 2.013-4.416 1.139-.64 1.393-.791 1.794-1l.193-.1V39h-4zm-19.64-21l1.023 1.558s.713-.659 1.703-1.05c1.491-.586 2.839-.673 4.578-.519 5.102.499 8.336 3.832 8.336 9.275V39h-4V28.275c0-3.36-.844-4.543-2.433-5.417-2.245-1.235-6.046-.983-8.567.643V39h-4V18h3.36zm39 .079l1.023 1.557s.713-.658 1.703-1.05c1.491-.586 2.839-.673 4.578-.519 5.102.5 8.336 3.832 8.336 9.275v11.737h-4V28.353c0-3.36-.844-4.543-2.433-5.417-2.245-1.235-6.046-.983-8.567.643v15.5h-4v-21h3.36zm-7.549-.019c-.399.209-.451.243-1.593.87-1.834 1.031-2.218 2.176-2.218 4.516V39h4V17.963l-.189.098zm.191-4.31l-.166.088c-.418.205-1.032.437-1.786.838-.857.463-1.234.684-2.05 1.4v-1.158c0-1.374.289-2.876 1.988-3.832 1.136-.644 1.42-.777 1.817-.988l.197-.098v3.75z" fill="#4ED401"/></svg>