<svg width="45" height="14" xmlns="http://www.w3.org/2000/svg">
    <path d="M43.6319 7.06482L37.9423 7.06586C38.0798 5.30262 39.377 4.51482 40.7731 4.51482C42.1692 4.51482 43.4713 5.25657 43.6319 7.06482ZM44.1083 4.53351C43.2816 3.54457 41.8638 3.06836 40.8081 3.06836C37.9539 3.06836 36.3538 5.36909 36.3538 7.6326C36.3434 8.95546 36.7919 10.0969 37.6432 10.9548C38.4383 11.7561 39.489 12.1837 40.8266 12.1837C42.0546 12.1837 43.5272 11.6851 44.5085 10.3708L43.3711 9.63092C42.7145 10.5375 41.4813 10.7227 40.8266 10.7227C39.1939 10.7227 38.2235 9.557 37.8965 8.35825H45.049C45.2955 7.03608 44.8729 5.4482 44.1083 4.53351Z" fill="#4ED401"/>
    <path fill-rule="evenodd" clip-rule="evenodd" d="M4.52991 3.08252C7.03016 3.08252 9.05982 5.11241 9.05982 7.61266C9.05982 10.1127 7.03016 12.1426 4.52991 12.1426C2.02989 12.1426 0 10.1127 0 7.61266C0 5.11241 2.02989 3.08252 4.52991 3.08252ZM4.52991 4.58408C6.21107 4.58408 7.57577 5.94878 7.57577 7.62994C7.57577 9.31087 6.21107 10.6756 4.52991 10.6756C2.84898 10.6756 1.48428 9.31087 1.48428 7.62994C1.48428 5.94878 2.84898 4.58408 4.52991 4.58408Z" fill="#4ED401"/>
    <path d="M20.0027 11.8985V2.09141C20.0027 1.0739 20.2953 0.576916 20.8267 0.276926C21.2929 0.013808 21.4099 -0.0479903 21.574 -0.133504L21.6531 -0.175049V11.8985H20.0027Z" fill="#4ED401"/>
    <path d="M11.954 3.20844L12.373 3.78337C12.373 3.78337 12.6649 3.5128 13.0699 3.35216C13.6806 3.11119 14.2323 3.07525 14.944 3.13867C17.0328 3.3437 18.1862 4.71342 18.1862 6.94978V11.8981H16.6633V7.21188C16.6633 5.8316 16.3179 5.34543 15.6673 4.98609C14.7482 4.47879 13.2379 4.58236 12.206 5.25031L12.2432 11.8981H10.5786V3.20844H11.954Z" fill="#4ED401"/>
    <path d="M28.4906 3.20844L28.9095 3.78337C28.9095 3.78337 29.2015 3.5128 29.6065 3.35216C30.2171 3.11119 30.7688 3.07525 31.4805 3.13867C33.5693 3.3437 34.7228 4.71342 34.7228 6.94978V11.8981H33.1998V7.21188C33.1998 5.8316 32.8545 5.34543 32.2038 4.98609C31.2848 4.47879 29.7745 4.58236 28.7426 5.25031L28.7798 11.8981H27.1152V3.20844H28.4906Z" fill="#4ED401"/>
    <path d="M25.2576 3.12861C25.0946 3.21407 25.073 3.22817 24.6056 3.48591C23.8549 3.90959 23.6976 4.37985 23.6976 5.34137V11.8998H25.3352V3.08838L25.2576 3.12861Z" fill="#4ED401"/>
    <path d="M25.3357 1.35734L25.268 1.39326C25.0968 1.47781 24.8453 1.57296 24.5367 1.73783C24.1858 1.92807 24.0315 2.01895 23.6975 2.31277V1.83717C23.6975 1.2728 23.8159 0.655591 24.5113 0.262432C24.9763 -0.00178782 25.0926 -0.0567806 25.2553 -0.143445L25.3357 -0.183594V1.35734Z" fill="#4ED401"/>
</svg>
