<svg width="45" height="14" fill="none" xmlns="http://www.w3.org/2000/svg"><g clip-path="url(#clip0)" fill="#4ED401"><path d="M43.632 7.065h-5.69c.138-1.763 1.435-2.55 2.831-2.55s2.698.741 2.859 2.55zm.476-2.532c-.826-.989-2.244-1.465-3.3-1.465-2.854 0-4.454 2.301-4.454 4.564-.01 1.323.438 2.465 1.29 3.323.794.801 1.845 1.229 3.183 1.229 1.227 0 2.7-.499 3.681-1.813l-1.137-.74c-.657.906-1.89 1.092-2.544 1.092-1.633 0-2.604-1.166-2.93-2.365h7.152c.246-1.322-.176-2.91-.94-3.825z"/><path fill-rule="evenodd" clip-rule="evenodd" d="M4.53 3.083c2.5 0 4.53 2.03 4.53 4.53 0 2.5-2.03 4.53-4.53 4.53-2.5 0-4.53-2.03-4.53-4.53 0-2.5 2.03-4.53 4.53-4.53zm0 1.501A3.047 3.047 0 017.576 7.63a3.047 3.047 0 01-3.046 3.046A3.047 3.047 0 011.484 7.63 3.047 3.047 0 014.53 4.584z"/><path d="M20.003 11.899V2.09c0-1.017.292-1.514.824-1.814.466-.263.583-.325.747-.41l.08-.042v12.073h-1.651zm-8.049-8.69l.419.574s.292-.27.697-.43c.61-.242 1.162-.278 1.874-.214 2.089.205 3.242 1.575 3.242 3.81v4.95h-1.523V7.211c0-1.38-.345-1.866-.996-2.226-.919-.507-2.43-.404-3.461.264l.037 6.648H10.58v-8.69h1.375zm16.536 0l.42.574s.291-.27.697-.43c.61-.242 1.162-.278 1.874-.214 2.088.205 3.242 1.575 3.242 3.81v4.95H33.2V7.211c0-1.38-.346-1.866-.996-2.226-.92-.507-2.43-.404-3.461.264l.037 6.648h-1.665v-8.69h1.376zm-3.232-.081c-.163.086-.185.1-.652.358-.751.423-.909.894-.909 1.855V11.9h1.638V3.088l-.077.04zm.078-1.771l-.068.036c-.171.085-.423.18-.731.345-.351.19-.505.28-.84.575v-.476c0-.564.119-1.181.814-1.575.465-.264.582-.319.744-.405l.08-.04v1.54z"/></g><defs><clipPath id="clip0"><path fill="#fff" d="M0 0h45v14H0z"/></clipPath></defs></svg>