<svg width="24" height="24" fill="none" xmlns="http://www.w3.org/2000/svg"><path class="svg-fill" d="M18.736 14.486a1.29 1.29 0 00-.303-.039l-.013.002a10.468 10.468 0 01-4.115-1.428l-1.906 1.949c-1.409-.95-2.631-2.22-3.581-3.533h-.005.005l1.909-1.949A10.561 10.561 0 019.3 5.352l.003-.024c0-.105-.016-.211-.039-.308A1.32 1.32 0 007.986 4H5.317c-.716 0-1.297.573-1.314 1.285 0 .011-.003.021-.003.032 0 .077.01.151.022.223a15.722 15.722 0 002.903 7.711 15.815 15.815 0 003.577 3.574 15.727 15.727 0 007.704 2.902c.074.013.15.023.227.023.011 0 .022-.003.033-.004a1.313 1.313 0 001.284-1.313v-2.669c0-.622-.434-1.142-1.014-1.278z" fill="#244C8E"/></svg>