<svg width="65" height="22" viewBox="0 0 65 22" fill="none" xmlns="http://www.w3.org/2000/svg">
<rect width="65" height="22" rx="6" fill="white" fill-opacity="0.25"/>
<g clip-path="url(#clip0)">
<path d="M53.6319 11.0648L47.9423 11.0658C48.0798 9.30256 49.377 8.51476 50.7731 8.51476C52.1692 8.51476 53.4713 9.25651 53.6319 11.0648ZM54.1083 8.53345C53.2816 7.54451 51.8638 7.0683 50.8081 7.0683C47.9539 7.0683 46.3538 9.36903 46.3538 11.6325C46.3434 12.9554 46.7919 14.0969 47.6432 14.9548C48.4383 15.7561 49.489 16.1836 50.8266 16.1836C52.0546 16.1836 53.5272 15.6851 54.5085 14.3707L53.3711 13.6309C52.7145 14.5374 51.4813 14.7226 50.8266 14.7226C49.1939 14.7226 48.2235 13.5569 47.8965 12.3582H55.049C55.2955 11.036 54.8729 9.44814 54.1083 8.53345Z" fill="#4ED401"/>
<path fill-rule="evenodd" clip-rule="evenodd" d="M14.5299 7.08258C17.0302 7.08258 19.0598 9.11247 19.0598 11.6127C19.0598 14.1127 17.0302 16.1426 14.5299 16.1426C12.0299 16.1426 10 14.1127 10 11.6127C10 9.11247 12.0299 7.08258 14.5299 7.08258ZM14.5299 8.58414C16.2111 8.58414 17.5758 9.94884 17.5758 11.63C17.5758 13.3109 16.2111 14.6756 14.5299 14.6756C12.849 14.6756 11.4843 13.3109 11.4843 11.63C11.4843 9.94884 12.849 8.58414 14.5299 8.58414Z" fill="#4ED401"/>
<path d="M30.0027 15.8985V6.09141C30.0027 5.0739 30.2953 4.57692 30.8267 4.27693C31.2929 4.01381 31.4099 3.95201 31.574 3.8665L31.6531 3.82495V15.8985H30.0027Z" fill="#4ED401"/>
<path d="M21.954 7.2085L22.373 7.78343C22.373 7.78343 22.6649 7.51286 23.0699 7.35222C23.6805 7.11125 24.2322 7.07531 24.9439 7.13873C27.0327 7.34376 28.1862 8.71348 28.1862 10.9498V15.8981H26.6632V11.2119C26.6632 9.83166 26.3179 9.34549 25.6673 8.98615C24.7482 8.47885 23.2379 8.58242 22.206 9.25037L22.2432 15.8981H20.5786V7.2085H21.954Z" fill="#4ED401"/>
<path d="M38.4906 7.2085L38.9095 7.78343C38.9095 7.78343 39.2014 7.51286 39.6064 7.35222C40.2171 7.11125 40.7688 7.07531 41.4805 7.13873C43.5693 7.34376 44.7228 8.71348 44.7228 10.9498V15.8981H43.1998V11.2119C43.1998 9.83166 42.8544 9.34549 42.2038 8.98615C41.2847 8.47885 39.7745 8.58242 38.7425 9.25037L38.7797 15.8981H37.1151V7.2085H38.4906Z" fill="#4ED401"/>
<path d="M35.2576 7.12849C35.0946 7.21395 35.073 7.22805 34.6056 7.48579C33.8549 7.90946 33.6976 8.37973 33.6976 9.34125V15.8997H35.3352V7.08826L35.2576 7.12849Z" fill="#4ED401"/>
<path d="M35.3357 5.35734L35.2681 5.39326C35.0968 5.47781 34.8453 5.57296 34.5367 5.73783C34.1858 5.92807 34.0315 6.01895 33.6975 6.31277V5.83717C33.6975 5.2728 33.8159 4.65559 34.5113 4.26243C34.9764 3.99821 35.0926 3.94322 35.2554 3.85656L35.3357 3.81641V5.35734Z" fill="#4ED401"/>
</g>
<defs>
<clipPath id="clip0">
<path d="M10 4H55V18H10V4Z" fill="white"/>
</clipPath>
</defs>
</svg>
