<svg width="64" height="64" viewBox="0 0 64 64" fill="none" xmlns="http://www.w3.org/2000/svg">
<path d="M34.7746 22.7762H31.2068C31.0242 22.1125 30.1322 21.6564 28.5333 20.2424C26.932 18.8572 26.1313 17.2989 26.1313 15.5963C26.1313 14.24 26.5199 12.9704 27.2972 11.7872C28.0744 10.604 28.9663 9.79571 29.973 9.33398C29.6991 10.6903 29.5611 11.8738 29.5611 12.8838C29.5611 13.9227 30.453 15.3078 32.2369 17.1258C34.0184 18.915 34.9103 20.5023 34.9103 21.8586C34.9103 22.5223 34.8659 22.43 34.7746 22.7762Z" fill="white" fill-opacity="0.5"/>
<path fill-rule="evenodd" clip-rule="evenodd" d="M36.7772 50.3716H25.4443C24.5565 50.3716 23.8524 49.6167 23.3339 49.0752C20.2963 46.3347 18.0006 43.069 16.4449 39.2619C14.3706 34.1747 13.3335 29.9573 13.3335 26.6096C13.3335 25.543 14.3706 24.1152 15.1107 24.1152H47.1107C47.5554 24.1152 48.8895 26.0024 48.8895 26.6096C48.8895 27.2168 48.8518 27.709 48.778 28.0864C50.8522 28.4638 43.2592 45.6125 42.4452 45.3172C41.7035 46.3018 40.5187 47.5654 38.8892 49.0752C38.3706 49.6167 37.6666 50.3716 36.7772 50.3716ZM34.5929 41.5431L34.3812 42.3965C33.7462 42.659 33.2407 42.8397 32.8617 42.971C32.4842 43.1023 32.0444 43.1673 31.5456 43.1673C30.7759 43.1673 30.1786 42.9871 29.7519 42.6096C29.3253 42.2322 29.1119 41.7561 29.1119 41.1817C29.1119 40.952 29.1283 40.7224 29.1612 40.4926C29.1923 40.2629 29.2432 40.0004 29.3138 39.705L30.1031 36.8989C30.1737 36.6199 30.2328 36.3734 30.2803 36.1273C30.3279 35.8811 30.3526 35.6679 30.3526 35.471C30.3526 35.11 30.2787 34.8639 30.131 34.7162C29.9833 34.5849 29.7027 34.5031 29.2859 34.5031C29.0808 34.5031 28.8707 34.536 28.6557 34.6016C28.4408 34.6673 28.257 34.7327 28.1027 34.7819L28.3144 33.9285C28.833 33.7152 29.3302 33.5349 29.8044 33.3708C30.2787 33.2232 30.7283 33.1569 31.1501 33.1569C31.9132 33.1569 32.5023 33.3375 32.9159 33.6986C33.3294 34.076 33.5361 34.5525 33.5361 35.1433C33.5361 35.2582 33.5214 35.4873 33.4918 35.7827C33.4639 36.0945 33.4098 36.3735 33.3343 36.6361L32.545 39.4261C32.481 39.6559 32.4235 39.918 32.3726 40.197C32.3201 40.4923 32.2955 40.7063 32.2955 40.854C32.2955 41.2315 32.3776 41.4775 32.545 41.6088C32.7123 41.7401 32.9995 41.822 33.4098 41.822C33.6034 41.822 33.82 41.789 34.0645 41.7234C34.3074 41.6414 34.4846 41.5923 34.5929 41.5431ZM34.7948 29.7931C34.7948 30.2854 34.611 30.6961 34.2418 31.0407C33.8742 31.3853 33.4295 31.5487 32.9109 31.5487C32.3907 31.5487 31.946 31.3853 31.5735 31.0407C31.2026 30.6961 31.0155 30.2854 31.0155 29.7931C31.0155 29.3008 31.2026 28.8909 31.5735 28.5463C31.946 28.2017 32.3907 28.0207 32.9109 28.0207C33.4295 28.0207 33.8742 28.2017 34.2418 28.5463C34.611 28.8909 34.7948 29.3008 34.7948 29.7931Z" fill="white"/>
<path d="M48.8278 28.0696C50.8796 28.447 52.5863 29.4971 53.9446 31.1873C55.3157 32.894 56.0013 34.8634 56.0013 37.0623C56.0013 39.3434 55.2231 41.3943 53.6682 43.2322C51.9631 45.2015 49.7051 46.2026 46.8894 46.2026C45.9274 46.2026 45.0005 46.0714 44.112 45.858C43.834 45.776 43.329 45.6122 42.5955 45.3332L42.4453 45.2835C42.8224 45.4148 44.4604 42.1004 44.446 42.084C45.0373 42.3958 45.8523 42.5431 46.8894 42.5431C48.5929 42.5431 49.9448 41.9856 50.9452 40.8861C51.9455 39.7866 52.4457 38.5065 52.4457 37.0623C52.4457 35.7659 52.0382 34.617 51.2232 33.5832C50.5025 32.6806 49.6076 32.0901 48.5402 31.7947C49.1666 29.6942 49.3823 28.1676 48.7782 28.0527L48.8278 28.0696Z" fill="white" fill-opacity="0.5"/>
</svg>
