<svg width="64" height="64" viewBox="0 0 64 64" fill="none" xmlns="http://www.w3.org/2000/svg">
<path d="M31.5295 24.4053H21.5776C21.4583 24.1285 20.8752 23.8157 19.8302 23.226C18.7836 22.6484 18.2603 21.9986 18.2603 21.2886C18.2603 20.723 18.5142 20.1936 19.0222 19.7002C19.5302 19.2068 20.1132 18.8697 20.7712 18.6772C20.5922 19.2428 20.5019 19.7363 20.5019 20.1575C20.5019 20.5907 21.0849 21.1683 22.2509 21.9264C23.4153 22.6725 23.9982 23.3344 23.9982 23.9C23.9982 24.1768 23.9692 24.2729 23.9095 24.4053H28.9299C29.0492 23.936 29.1089 23.7315 29.1089 23.551C29.1089 22.841 28.6912 22.2272 27.8542 21.7097C27.0172 21.1923 26.1802 20.6268 25.3432 19.989C24.5063 19.3512 24.0885 18.5689 24.0885 17.6302C24.0885 16.6434 24.4925 15.7169 25.2989 14.8745C26.1053 14.0322 27.1074 13.4907 28.3025 13.25C27.7638 14.7542 27.4961 15.5845 27.4961 15.7169C27.4961 16.4269 28.3469 17.4017 30.0499 18.6412C31.7545 19.8927 32.6052 20.9878 32.6052 21.9264C32.6052 22.6725 32.2471 23.4185 31.5295 24.4053Z" fill="white" fill-opacity="0.5"/>
<path d="M40.3555 24.4106H37.2734C37.4149 23.7201 37.4857 23.4193 37.4857 23.1537C37.4857 22.1092 36.9904 21.2063 35.9981 20.4451C35.0058 19.6839 34.0135 18.8519 33.0212 17.9137C32.0289 16.9754 31.5337 15.8246 31.5337 14.4437C31.5337 12.9921 32.0126 11.6291 32.9687 10.3899C33.9247 9.15066 35.1128 8.35406 36.5296 8C35.891 10.2129 35.5736 11.4343 35.5736 11.629C35.5736 12.6735 36.5823 14.1075 38.6013 15.9309C40.6222 17.7721 41.6308 19.383 41.6308 20.7638C41.6308 21.8614 41.2063 22.9589 40.3555 24.4106Z" fill="white" fill-opacity="0.5"/>
<path d="M48.1077 29.7011C50.1823 30.0906 42.5895 47.2465 41.7741 46.9349C41.0345 47.928 39.8493 49.1744 38.2185 50.6933C37.7008 51.2386 36.9973 51.9786 36.108 51.9786H24.7757C23.8864 51.9786 23.1828 51.2386 22.6632 50.6933C19.6273 47.9671 17.3309 44.6955 15.774 40.8787C13.7014 35.7962 12.6641 31.5705 12.6641 28.2211C12.6641 27.1501 13.7014 25.7285 14.4409 25.7285H46.4408C46.8865 25.7285 48.2195 27.6175 48.2195 28.2211C48.2195 28.8248 48.1817 29.3311 48.1077 29.7011Z" fill="white"/>
<path d="M48.1613 29.7356C50.2131 30.113 51.9198 31.1631 53.2781 32.8534C54.6492 34.56 55.3348 36.5294 55.3348 38.7284C55.3348 41.0094 54.5566 43.0603 53.0017 44.8982C51.2966 46.8675 49.0386 47.8686 46.2229 47.8686C45.2609 47.8686 44.334 47.7374 43.4455 47.524C43.1675 47.442 42.6625 47.2782 41.929 46.9992L41.7788 46.9495C42.1559 47.0808 43.7939 43.7664 43.7795 43.75C44.3708 44.0618 45.1857 44.2091 46.2229 44.2091C47.9264 44.2091 49.2783 43.6516 50.2787 42.5521C51.279 41.4526 51.7792 40.1725 51.7792 38.7284C51.7792 37.432 51.3717 36.283 50.5567 35.2492C49.836 34.3466 48.9411 33.7561 47.8737 33.4607C48.5001 31.3602 48.7158 29.8336 48.1117 29.7188L48.1613 29.7356Z" fill="white" fill-opacity="0.5"/>
</svg>
