<svg width="64" height="64" viewBox="0 0 64 64" fill="none" xmlns="http://www.w3.org/2000/svg">
<path d="M49.2516 28.9134C51.3258 29.3028 43.7342 46.456 42.9189 46.1445C42.1795 47.1374 40.9945 48.3836 39.3639 49.9023C38.8463 50.4475 38.1429 51.1874 37.2537 51.1874H25.9232C25.034 51.1874 24.3306 50.4475 23.8111 49.9023C20.7756 47.1765 18.4795 43.9054 16.9229 40.0893C14.8506 35.0075 13.8135 30.7825 13.8135 27.4336C13.8135 26.3628 14.8506 24.9414 15.59 24.9414H47.5849C48.0305 24.9414 49.3634 26.8301 49.3634 27.4336C49.3634 28.0372 49.3255 28.5435 49.2516 28.9134Z" fill="white"/>
<g opacity="0.7">
<path d="M39.1501 23.9529H26.8186C26.6707 23.5458 25.9483 23.0856 24.6533 22.2183C23.3564 21.3687 22.708 20.4129 22.708 19.3686C22.708 18.5367 23.0227 17.758 23.6522 17.0322C24.2817 16.3065 25.004 15.8108 25.8193 15.5276C25.5975 16.3595 25.4857 17.0854 25.4857 17.7049C25.4857 18.3421 26.2081 19.1916 27.6528 20.3068C29.0957 21.4042 29.818 22.3777 29.818 23.2096C29.818 23.6167 29.782 23.7582 29.708 23.9529H35.9288C36.0767 23.2626 36.1507 22.9618 36.1507 22.6963C36.1507 21.6519 35.633 20.7492 34.5959 19.9881C33.5588 19.2269 32.5217 18.3952 31.4846 17.457C30.4475 16.5189 29.9299 15.3683 29.9299 13.9876C29.9299 12.5362 30.4305 11.1734 31.4297 9.93442C32.4288 8.6954 33.6706 7.89893 35.1514 7.54492C34.484 9.75746 34.1522 10.9786 34.1522 11.1734C34.1522 12.2177 35.2064 13.6515 37.3167 15.4746C39.4288 17.3154 40.483 18.9261 40.483 20.3068C40.483 21.4042 40.0393 22.5015 39.1501 23.9529Z" fill="white"/>
<path d="M49.2946 28.9426C51.3461 29.32 53.0525 30.3699 54.4106 32.0599C55.7815 33.7663 56.467 35.7354 56.467 37.934C56.467 40.2147 55.6888 42.2652 54.1342 44.1029C52.4294 46.0718 50.1717 47.0728 47.3564 47.0728C46.3946 47.0728 45.4679 46.9416 44.5796 46.7283C44.3015 46.6462 43.7966 46.4825 43.0633 46.2035L42.9131 46.1538C43.2902 46.2851 44.9278 42.9712 44.9135 42.9548C45.5046 43.2666 46.3195 43.4139 47.3564 43.4139C49.0597 43.4139 50.4114 42.8564 51.4116 41.7571C52.4118 40.6578 52.9119 39.3779 52.9119 37.934C52.9119 36.6378 52.5045 35.489 51.6896 34.4554C50.969 33.5529 50.0743 32.9625 49.007 32.6672C49.6333 30.567 49.849 29.0406 49.245 28.9258L49.2946 28.9426Z" fill="white"/>
</g>
</svg>
