<svg width="64" height="64" viewBox="0 0 64 64" fill="none" xmlns="http://www.w3.org/2000/svg">
<path d="M33.8144 25.9272L36.8674 28.9802L37.2716 29.6623C37.5426 30.026 37.5034 30.3803 37.1327 30.7509L32.3841 35.4996C30.4847 37.399 28.4568 39.5403 26.2771 41.947C24.1078 44.341 22.4377 46.2613 21.2529 47.7171L19.4879 49.8898C19.2215 50.1562 18.9469 50.1598 18.6747 49.8876L12.9742 44.187C12.7032 43.916 12.7067 43.6414 12.9731 43.375C18.266 39.0782 23.0654 34.7746 27.3623 30.4777L32.1109 25.7291C32.4352 25.4048 32.7906 25.3666 33.2006 25.5913L33.8144 25.9272Z" fill="white" fill-opacity="0.7"/>
<path d="M55.5923 26.0035C55.8645 26.2756 55.8726 26.5385 55.5947 26.8165L49.8965 32.5146C49.6186 32.7926 49.3555 32.7846 49.0834 32.5124L45.5544 28.9834C45.2834 28.7124 45.2754 28.4494 45.5534 28.1714L46.503 27.2218C46.4115 26.2269 46.0757 25.5667 45.485 25.254C44.4392 24.6714 43.2046 24.5487 41.7464 24.9204C41.0237 25.1011 40.9797 24.8718 38.4433 27.4082L35.3904 24.3553C36.8381 22.9075 36.2264 23.3153 36.6943 22.4397C37.1738 21.5526 37.3801 20.5542 37.3373 19.4226C37.2458 17.4317 36.215 15.6134 34.2194 13.9884C33.5396 13.4012 32.4451 13.0712 30.9244 13.0098C29.4142 12.9357 28.1772 12.9727 27.2263 13.1105C26.5974 13.0144 26.6148 12.5453 27.3005 11.679C28.0637 11.0061 29.4546 10.5209 31.4722 10.2221C33.4897 9.92329 35.5583 10.2081 37.6766 11.0756C41.0249 12.4318 43.8299 14.241 46.0918 16.5029C47.0878 17.499 47.8778 18.4277 48.4742 19.279C48.6538 19.5512 48.7279 20.0655 48.707 20.8091C48.6873 21.5538 48.7846 22.0448 49.0104 22.2706C49.4181 22.6783 50.0331 22.8763 50.8462 22.8786L51.2515 22.4733C51.5295 22.1953 51.7924 22.2035 52.0634 22.4745L55.5923 26.0035Z" fill="white"/>
</svg>
