<svg width="64" height="64" viewBox="0 0 64 64" fill="none" xmlns="http://www.w3.org/2000/svg">
<path d="M51.5045 28.3521C52.7546 28.9745 53.3788 29.9882 53.3788 31.3752C53.3788 32.9045 52.6853 33.9356 51.2947 34.5046C51.7126 35.0559 51.9206 35.714 51.9206 36.4786C51.9206 38.0079 51.2254 39.039 49.8366 39.6081C50.1833 40.1593 50.3577 40.7463 50.3577 41.3687C50.3577 42.2756 50.0803 42.9335 49.5237 43.3603C48.9689 43.7693 48.0299 44.1603 46.7105 44.4981C43.0296 45.405 38.6535 45.7074 33.582 45.4406C32.8885 45.4406 31.5851 45.3162 29.6753 45.0673C27.7655 44.8183 27.0703 44.7117 26.3057 44.7117V24.7069C28.3204 24.5647 29.0672 24.0844 29.8318 23.2487C32.6111 20.3324 33.9999 16.5805 33.9999 11.9927C33.9999 9.91223 34.1386 8.72085 34.416 8.45412C35.1113 7.76062 36.0839 7.84939 37.334 8.75628C38.5841 9.66316 39.4181 10.8368 39.8342 12.2949C40.0422 13.1306 40.181 14.0021 40.2503 14.909C40.3214 15.8159 40.3214 16.5628 40.2503 17.1496C40.181 17.7364 40.0778 18.483 39.9391 19.3899C39.8004 20.2968 39.7311 21.4348 39.7311 21.8438H50.4625C51.4352 21.8438 52.2674 21.7195 52.9627 22.413C53.6579 23.1065 54.0047 23.9423 54.0047 24.9025C54.0047 26.7163 53.1707 27.8542 51.5045 28.3521Z" fill="white"/>
<path d="M24.768 23.3906V48.0011H13.9956V23.3906H24.768ZM17.3297 43.0399C17.3297 44.1601 17.8846 44.7115 18.9959 44.7115C20.1073 44.7115 20.6639 44.1601 20.6639 43.0399C20.6639 41.9374 20.1073 41.3685 18.9959 41.3685C17.8846 41.3685 17.3297 41.9374 17.3297 43.0399Z" fill="white" fill-opacity="0.7"/>
</svg>
